<?xml version="1.0" encoding="utf-8"?>
<!-- Generator: Adobe Illustrator 21.0.0, SVG Export Plug-In . SVG Version: 6.00 Build 0)  -->
<svg version="1.1" id="Calque_1" xmlns="http://www.w3.org/2000/svg" xmlns:xlink="http://www.w3.org/1999/xlink" x="0px" y="0px"
	 viewBox="0 0 300 200" style="enable-background:new 0 0 300 200;" xml:space="preserve">
<style type="text/css">
	.st0{fill:#313131;}
</style>
<g>
	<path class="st0" d="M260.6,58.2c-2-1.7-1.8-4.6-3.3-7c-0.5,1.7-0.8,3.1-0.5,4.6c0.4,1.9,1.1,3.7,1.6,5.5c0.7,2.2,1.6,4.4,2,6.6
		c0.5,2.9,0.5,5.9,0.8,8.9c0.3,3.1,0.6,6.2,0.9,9.4c0,0.5,0,1,0,1.5c0,1.5,0.5,2.7,1.6,3.8c5,5.4,7.5,11.7,7.2,19.1
		c0,0.7-0.3,1.5-0.6,2.2c-1.1,2.1-1.5,4.2-1.3,6.5c0.2,3.1,0.1,6.2,0.2,9.2c0.2,3.2,0.5,6.4,0.7,9.5c0.1,0.9,0.5,1.5,1.3,2
		c1.2,0.8,2.5,1.1,3.9,1.2c1.8,0,3.5,0,5.3,0c2.4,0.1,4.6,0.5,6.5,2.1c0.7,0.5,1.2,1.3,1.7,2c0.1,0.2,0.1,0.7-0.1,0.9
		c-0.2,0.2-0.6,0.2-0.9,0.1c-0.6-0.3-1.1-0.7-1.7-1c-0.8-0.4-1.5-1.1-2.7-0.9c0.2,1,0.4,2,0.6,3.3c-0.8-0.2-1.3-0.2-1.8-0.4
		c-0.8-0.4-1.6-0.4-2.4-0.2c-2.6,0.7-5.1,1.3-7.7,1.9c-2.9,0.6-5.6,0-8.1-1.3c-1.5-0.8-2.4-2.1-2.8-3.7c-0.4-1.8-0.7-3.6-0.9-5.4
		c-0.3-2.6-0.7-5.1-2-7.4c-0.7-1.3-0.9-2.9-1.3-4.4c-0.2-0.8-0.4-1.6-0.7-2.4c-0.1-0.4-0.4-0.7-0.9-0.9c0.4,1.6,0.8,3.3,1,4.9
		c0.8,5,1.6,10,2.3,15c0.3,2.2,0.1,4.4,0.3,6.6c0.2,3.1,0.5,6.2,1,9.3c0.2,1.3,0.8,2.6,1.2,3.9c0.3,1,1,1.7,2,2
		c1.2,0.3,2.3,0.6,3.5,0.7c2.2,0.2,4.5,0.1,6.8,0.2c2.8,0.2,5,1.5,6.2,4.2c0.4,1,1.3,1.8,2,2.6c0.8,0.9,1.6,1.8,2.3,2.8
		c0.7,0.9,0.6,1.8,0.1,2.4c-0.7,0.9-1.7,1.1-2.8,0.6c-0.8-0.3-1.5-0.7-2.3-0.9c-1.2-0.4-1.6-0.1-1.6,1.2c0,0.3,0,0.5,0,1
		c-0.9-0.4-1.7-0.6-2.4-1c-1.2-0.6-2.4-1.3-3.7-1.9c-0.4-0.2-0.9-0.4-1.4-0.5c-1.2-0.3-1.6,0.1-1.7,1.3c0,0.3,0,0.6,0,1.2
		c-2.9-2.1-6.2-2.8-9.4-3.8c-4.8-1.5-4.8-1.5-6.6-6.2c-2.9-7.5-5.1-15.2-6.9-23.1c-0.4-1.9-0.8-3.8-1.3-5.6
		c-0.2-0.6-0.5-1.2-0.7-1.7c-1-0.1-1.3,0.6-1.7,1.1c-0.6,0.6-1.1,1.2-1.7,1.7c-1.6,1.4-3.3,2.8-4.9,4.1c-0.8,0.7-1.6,1.4-2.4,2.1
		c-4.1,3.8-9,6.1-14.5,7.1c-1.9,0.4-3.8,0.8-5.6,1.2c-2.7,0.6-5,1.7-7.3,3.3c-3.3,2.3-7.1,3.8-10.9,5.1c-5.6,1.9-11.4,2.9-17.3,3.3
		c-0.9,0.1-1.9,0.3-2.7,0.6c-3.8,1.2-7.5,2.6-11.3,3.8c-5.7,1.8-11.3,3.7-17.2,4.7c-4.4,0.8-8.9,1.4-13.4,1.5
		c-3,0.1-5.9,0.2-8.9,0.3c-1.6,0-3.3,0-4.9-0.2c-3.4-0.3-5.8-2.2-7.5-5c-0.6-1.1-1.2-2.3-1.8-3.3c-1.4-2.3-2.7-2.9-5.4-2.4
		c-0.5,0.1-1,0.1-1.5,0.1c-7.9,0.2-15.7,0.3-23.6,0.4c-3,0-5.9-0.1-8.9,0c-6.3,0.1-12.7,0.2-19,0.4c-6.5,0.2-13.1,0.5-19.6,0.6
		c-3,0-5.9,0.5-8.7,1.7c-2.4,1-4.8,2-7.2,2.9c-0.9,0.3-1.9,0.5-2.9,0.7c-0.9-1.5-0.7-2.9-0.1-4.2c0.6-1.3,1.3-2.5,2.1-3.7
		c1.5-2.3,3-4.6,4.5-6.9c1.1-1.6,2.6-2.6,4.5-2.8c1.6-0.2,3.3-0.2,4.9-0.1c2.9,0.2,5.6-0.8,8.3-1.7c0.3-0.1,0.5-0.4,0.8-0.6
		c-0.5-0.9-1.4-1-2.2-1.2c-2-0.6-4-1.1-6.1-1.6c-1.4-0.4-1.8-0.8-1.8-2.3c0-0.6,0.2-1.2,0.3-2c0.7,0.1,1.3,0.1,1.8,0.3
		c2.1,0.6,4.2,1.4,6.3,2c2.6,0.8,5.2,1.5,8,0.8c0.3-0.1,0.6-0.1,0.8-0.2c1.8-0.9,3.4-0.4,5,0.5c1.2,0.6,2.2,1.4,3.4,2.1
		c1.1,0.6,2.2,1.2,3.4,1.6c0.8,0.3,1.8,0.4,2.6,0.2c2.3-0.8,4.8-0.8,7.2-1.1c5.5-0.7,10.9-2,16.2-3.8c3.1-1,6.2-1.5,9.4-1.9
		c6-0.6,12-0.4,17.9,1.1c2.2,0.6,3.6-0.1,4.5-2.2c0.3-0.7,0.6-1.5,0.8-2.3c0.7-2.8,1.4-5.5,2.6-8.2c1.3-2.9,2.1-5.9,3-8.9
		c1.3-4.2,2.4-8.4,3.7-12.5c1.3-3.9,2.6-7.9,4.1-11.7c0.9-2.3,1.3-4.5,1.2-6.9c-0.1-2.2-0.1-4.4,0.5-6.5c0.6-2.1,1.3-4.2,1.9-6.3
		c0.6-2.2,1.2-4.5,1.9-6.7c0.3-1.1,0.1-1.9-0.6-2.8c-0.8-1-1.6-1.9-2.4-2.9c-0.7-0.9-1.5-1.8-2.1-2.8c-1.4-2.1-1.1-4.3,0.2-6.4
		c0.9-1.4,2.3-2.1,4-1.9c1.1,0.2,2.3,0.5,3.3,1c1.6,0.8,3,1.8,4.5,2.7c0.9,0.6,1.8,1.3,2.7,1.8c1.6,1,2.6,2.5,3.2,4.3
		c0.8,2.5,0.6,5.1,0.9,7.7c0.2,1.6,0.4,3.3,0.7,4.9c0.3,1.5,1,2.9,2.1,4.1c1.6,1.7,3.3,1.7,4.8-0.1c0.4-0.5,0.7-1.1,1.1-1.7
		c0.9-1.1,1.7-2.3,2.7-3.3c0.3-0.4,0.9-0.6,1.4-1c0.3,1.4-0.3,2.3-0.9,3.2c-0.6,0.9-1.3,1.8-2,2.7c-2.3,3.4-4,7-4.3,11.1
		c-0.1,0.7-0.4,1.1-0.9,1.4c-1.4,0.7-2.8,1.5-4.2,2.3c-1.1,0.7-2.3,1.3-3.3,2.1c-1.4,1.1-2.2,2.7-2.4,4.6c-0.2,3-0.5,5.9-0.8,8.9
		c-0.8,8.4-0.8,16.7-0.2,25.1c0,0.2,0.1,0.4,0.2,0.8c1.2-0.3,2.4-0.5,3.5-0.9c1.5-0.6,3-1.5,4.4-2.2c2-1,4-1.9,6-2.8
		c0.2-0.1,0.5-0.2,0.7-0.3c2.7-1.6,5.4-3.1,8.2-4.7c2.4-1.4,4.6-3,6.4-5.2c2.6-3.1,5.9-5.4,9.1-7.9c4.1-3.2,8.8-4.5,13.8-4.6
		c4.4-0.1,8.7,0.1,12.9,1.2c1.9,0.5,3.9,0.8,5.9,0.8c3.6,0.1,4.5-0.9,4.2-4.4c-0.2-2-0.7-3.9-1.2-5.8c-0.7-2.6-1.5-5.2-2.2-7.8
		c-0.1-0.5-0.2-1-0.1-1.5c0.3-5.1,0.5-10.1,0.9-15.2c0.2-2.8,0.8-5.7,1.2-8.5c0.4-3.2,0.4-6.4-0.4-9.5c-0.5-1.9-1.3-3.8-2.6-5.3
		c-1.3-1.5-1.5-3.2-0.9-4.9c0.4-1.4,1-2.7,1.5-4c0.7-1.9,1.2-3.8,1.2-5.9c0-1.8,0.5-3.7,1-5.5c0.4-1.8,1.1-3.5,1.6-5.2
		c0.4-1.4,0.8-2.9,1-4.3c0.2-1.4,0.8-2.5,1.8-3.4c2.3-2.3,5.2-3.4,8.2-4.4c4.2-1.4,8.2-1,12.3,0.5c3.1,1.2,5.6,3.1,7.4,6
		c1.1,1.8,2.4,3.4,3.7,5.1c2.5,3.3,4.4,6.9,5.6,11c1.2,4,2.7,7.9,4.1,11.8c0.3,1,0.6,2,0.9,2.9C260.8,58.1,260.7,58.2,260.6,58.2z
		 M216.3,105.5c0.2,0,0.3-0.1,0.5-0.1c-0.3-1.4-0.5-2.9-0.8-4.3c-0.6-3.2-0.6-3.3-1.7-4.2C214.8,99.9,215.2,102.7,216.3,105.5z
		 M215.7,79.5c-0.2,0-0.3,0-0.5,0c-0.5,1.8-1.6,3.5-0.3,5.4C215.2,83.1,215.5,81.3,215.7,79.5z M212.8,54c-0.6,2.6-0.2,4.3,1.2,5.1
		C213.8,57.4,213.6,55.7,212.8,54z"/>
</g>
</svg>
